<svg width="30" height="30" viewBox="0 0 30 30" fill="none" xmlns="http://www.w3.org/2000/svg">
<!--   social-->
    <g clip-path="url(#clip0_2_5860)" id="GitHub">
        <path d="M15 0.600098C7.04698 0.600098 0.599976 7.0471 0.599976 15.0001C0.599976 22.9531 7.04698 29.4001 15 29.4001C22.953 29.4001 29.4 22.9531 29.4 15.0001C29.4 7.0471 22.953 0.600098 15 0.600098ZM11.475 20.9686H8.55898V11.5846H11.475V20.9686ZM9.99898 10.4326C9.07798 10.4326 8.48248 9.7801 8.48248 8.9731C8.48248 8.1496 9.09598 7.5166 10.0365 7.5166C10.977 7.5166 11.553 8.1496 11.571 8.9731C11.571 9.7801 10.977 10.4326 9.99898 10.4326ZM22.125 20.9686H19.209V15.7681C19.209 14.5576 18.786 13.7356 17.7315 13.7356C16.926 13.7356 16.4475 14.2921 16.236 14.8276C16.158 15.0181 16.1385 15.2881 16.1385 15.5566V20.9671H13.221V14.5771C13.221 13.4056 13.1835 12.4261 13.1445 11.5831H15.678L15.8115 12.8866H15.87C16.254 12.2746 17.1945 11.3716 18.768 11.3716C20.6865 11.3716 22.125 12.6571 22.125 15.4201V20.9686Z" fill="currentColor" />
    </g>
    <defs>
        <clipPath id="clip0_2_5860">
            <rect width="30" height="30" fill="white" />
        </clipPath>

        <g id="Linkedin">
            <path d="M18.9057 4.76449L16.3705 16.7208C16.1791 17.5644 15.6804 17.7745 14.9717 17.3772L11.1085 14.5305L9.24472 16.3235C9.0383 16.5299 8.86608 16.7022 8.46824 16.7022L8.74607 12.7681L15.9054 6.29885C16.2169 6.02162 15.8376 5.86741 15.4218 6.14524L6.57084 11.7186L2.76043 10.5257C1.93174 10.2671 1.91674 9.69701 2.93325 9.29917L17.837 3.55716C18.5271 3.29854 19.1308 3.71018 18.9057 4.76449Z" fill="currentColor"/>
            <path fill-rule="evenodd" clip-rule="evenodd" d="M15 0C6.7125 0 0 6.7125 0 15C0 21.6375 4.29375 27.2438 10.2563 29.2313C11.0063 29.3625 11.2875 28.9125 11.2875 28.5188C11.2875 28.1625 11.2688 26.9813 11.2688 25.725C7.5 26.4188 6.525 24.8063 6.225 23.9625C6.05625 23.5313 5.325 22.2 4.6875 21.8438C4.1625 21.5625 3.4125 20.8688 4.66875 20.85C5.85 20.8313 6.69375 21.9375 6.975 22.3875C8.325 24.6563 10.4812 24.0188 11.3438 23.625C11.475 22.65 11.8688 21.9938 12.3 21.6188C8.9625 21.2438 5.475 19.95 5.475 14.2125C5.475 12.5813 6.05625 11.2313 7.0125 10.1813C6.8625 9.80625 6.3375 8.26875 7.1625 6.20625C7.1625 6.20625 8.41875 5.8125 11.2875 7.74375C12.4875 7.40625 13.7625 7.2375 15.0375 7.2375C16.3125 7.2375 17.5875 7.40625 18.7875 7.74375C21.6563 5.79375 22.9125 6.20625 22.9125 6.20625C23.7375 8.26875 23.2125 9.80625 23.0625 10.1813C24.0187 11.2313 24.6 12.5625 24.6 14.2125C24.6 19.9688 21.0938 21.2438 17.7563 21.6188C18.3 22.0875 18.7688 22.9875 18.7688 24.3938C18.7688 26.4 18.75 28.0125 18.75 28.5188C18.75 28.9125 19.0312 29.3813 19.7812 29.2313C22.759 28.2259 25.3465 26.3121 27.1796 23.7592C29.0127 21.2063 29.9991 18.1429 30 15C30 6.7125 23.2875 0 15 0Z" fill="currentColor" />
        </g>
    </defs>
    <g id="Telegram" >
        <path d="M15 0C6.72 0 0 6.72 0 15C0 23.28 6.72 30 15 30C23.28 30 30 23.28 30 15C30 6.72 23.28 0 15 0ZM21.96 10.2C21.735 12.57 20.76 18.33 20.265 20.985C20.055 22.11 19.635 22.485 19.245 22.53C18.375 22.605 17.715 21.96 16.875 21.405C15.555 20.535 14.805 19.995 13.53 19.155C12.045 18.18 13.005 17.64 13.86 16.77C14.085 16.545 17.925 13.05 18 12.735C18.0104 12.6873 18.009 12.6378 17.996 12.5907C17.9829 12.5437 17.9585 12.5005 17.925 12.465C17.835 12.39 17.715 12.42 17.61 12.435C17.475 12.465 15.375 13.86 11.28 16.62C10.68 17.025 10.14 17.235 9.66 17.22C9.12 17.205 8.1 16.92 7.335 16.665C6.39 16.365 5.655 16.2 5.715 15.675C5.745 15.405 6.12 15.135 6.825 14.85C11.205 12.945 14.115 11.685 15.57 11.085C19.74 9.345 20.595 9.045 21.165 9.045C21.285 9.045 21.57 9.075 21.75 9.225C21.9 9.345 21.945 9.51 21.96 9.63C21.945 9.72 21.975 9.99 21.96 10.2Z" fill="currentColor"/>
    </g>

<!--    techStack-->
    <g id="GitHubTech">
    <path fill-rule="evenodd" clip-rule="evenodd" d="M44 0C19.69 0 0 19.69 0 44C0 63.47 12.595 79.915 30.085 85.745C32.285 86.13 33.11 84.81 33.11 83.655C33.11 82.61 33.055 79.145 33.055 75.46C22 77.495 19.14 72.765 18.26 70.29C17.765 69.025 15.62 65.12 13.75 64.075C12.21 63.25 10.01 61.215 13.695 61.16C17.16 61.105 19.635 64.35 20.46 65.67C24.42 72.325 30.745 70.455 33.275 69.3C33.66 66.44 34.815 64.515 36.08 63.415C26.29 62.315 16.06 58.52 16.06 41.69C16.06 36.905 17.765 32.945 20.57 29.865C20.13 28.765 18.59 24.255 21.01 18.205C21.01 18.205 24.695 17.05 33.11 22.715C36.63 21.725 40.37 21.23 44.11 21.23C47.85 21.23 51.59 21.725 55.11 22.715C63.525 16.995 67.21 18.205 67.21 18.205C69.63 24.255 68.09 28.765 67.65 29.865C70.455 32.945 72.16 36.85 72.16 41.69C72.16 58.575 61.875 62.315 52.085 63.415C53.68 64.79 55.055 67.43 55.055 71.555C55.055 77.44 55 82.17 55 83.655C55 84.81 55.825 86.185 58.025 85.745C66.7597 82.796 74.3497 77.1822 79.7268 69.6937C85.1039 62.2052 87.9974 53.219 88 44C88 19.69 68.31 0 44 0Z" fill="#FFFEFE" />
</g>
    <g id="js">
        <path d="M80.3906 0H24.6094C11.018 0 0 11.018 0 24.6094V80.3906C0 93.982 11.018 105 24.6094 105H80.3906C93.982 105 105 93.982 105 80.3906V24.6094C105 11.018 93.982 0 80.3906 0Z" fill="#F0DB4F"/>
        <path d="M27.6084 87.7456L35.6434 82.8827C37.1938 85.6312 38.6039 87.9568 41.9865 87.9568C45.2287 87.9568 47.273 86.6886 47.273 81.7552V48.2053H57.1405V81.8947C57.1405 92.1145 51.1498 96.7665 42.4093 96.7665C34.5159 96.7665 29.934 92.6785 27.608 87.7447M62.5 86.6882L70.5342 82.0366C72.6493 85.4905 75.3982 88.0277 80.261 88.0277C84.3499 88.0277 86.9568 85.9835 86.9568 83.1641C86.9568 79.7811 84.2785 78.5827 79.7676 76.6098L77.3013 75.552C70.1822 72.5218 65.4597 68.7155 65.4597 60.6806C65.4597 53.2797 71.0985 47.6409 79.9091 47.6409C86.182 47.6409 90.6929 49.8262 93.9348 55.5352L86.2522 60.4689C84.5603 57.4383 82.7285 56.2402 79.9091 56.2402C77.0191 56.2402 75.1866 58.0728 75.1866 60.4689C75.1866 63.429 77.0191 64.6275 81.2478 66.4605L83.7145 67.5175C92.1018 71.1125 96.8244 74.7768 96.8244 83.023C96.8244 91.9045 89.8468 96.7673 80.4727 96.7673C71.3102 96.7673 65.3896 92.3975 62.5 86.6882Z" fill="#323330"/>
    </g>
    <g id="react">
        <path d="M92.9056 32.7028C91.7031 32.2887 90.4904 31.9051 89.2687 31.5524C89.4739 30.7107 89.6628 29.8792 89.8306 29.0624C92.5838 15.6484 90.7839 4.84184 84.6361 1.28381C78.7416 -2.12716 69.1016 1.42955 59.3659 9.93348C58.4064 10.7731 57.4682 11.6369 56.5522 12.524C55.9389 11.9341 55.3149 11.3556 54.6803 10.7889C44.4767 1.69623 34.2493 -2.13602 28.1081 1.43221C22.2189 4.8538 20.475 15.0127 22.9538 27.7254C23.2004 28.9845 23.4788 30.2371 23.7888 31.4819C22.3412 31.8948 20.9442 32.3342 19.6073 32.802C7.64443 36.9882 0.00476074 43.5483 0.00476074 50.353C0.00476074 57.3809 8.20629 64.4301 20.6662 68.7044C21.6763 69.0495 22.6949 69.3693 23.7209 69.6635C23.3877 71.0042 23.0918 72.3541 22.8337 73.7114C20.4706 86.2035 22.316 96.1224 28.1893 99.5223C34.2555 103.033 44.437 99.4248 54.3506 90.7268C55.1545 90.0197 55.9407 89.2925 56.7084 88.546C57.7004 89.5067 58.7189 90.4394 59.7627 91.343C69.366 99.6365 78.8502 102.985 84.7177 99.5763C90.7782 96.055 92.748 85.3995 90.1907 72.4357C89.9893 71.42 89.7634 70.4094 89.5132 69.4048C90.2282 69.1921 90.93 68.9733 91.6141 68.7456C104.567 64.4385 112.995 57.4748 112.995 50.353C112.995 43.5235 105.109 36.9191 92.9056 32.7028ZM90.0963 64.1474C89.4783 64.3525 88.8445 64.5506 88.1984 64.7433C86.7683 60.1996 84.8387 55.3684 82.4769 50.3764C84.7305 45.5036 86.586 40.7341 87.9759 36.2201C89.1319 36.5558 90.2534 36.9098 91.3347 37.2832C101.791 40.8962 108.169 46.2372 108.169 50.353C108.169 54.7367 101.281 60.4277 90.0963 64.1474ZM85.4557 73.3765C86.5865 79.1087 86.7476 84.2916 85.9986 88.3436C85.3259 91.9845 83.9727 94.4116 82.299 95.3839C78.7385 97.4526 71.1235 94.7637 62.911 87.6707C61.9401 86.8305 60.9927 85.9634 60.0699 85.0704C63.2539 81.5757 66.4358 77.5131 69.5412 73.0009C75.0036 72.5145 80.1641 71.7189 84.844 70.6332C85.0694 71.5426 85.2734 72.4574 85.4557 73.3765ZM38.5257 95.0264C35.0469 96.2592 32.2759 96.2947 30.6009 95.3254C27.0369 93.2625 25.5552 85.2981 27.5762 74.6151C27.8165 73.3527 28.0916 72.0973 28.4012 70.8502C33.0294 71.8779 38.1523 72.6168 43.6275 73.0625C46.7542 77.4777 50.0278 81.5358 53.3271 85.0894C52.6259 85.7704 51.9082 86.4339 51.1745 87.0793C46.7904 90.9253 42.3974 93.6541 38.5257 95.0264ZM22.2277 64.1204C16.7181 62.2302 12.168 59.7739 9.04931 57.0934C6.24661 54.6849 4.83202 52.2932 4.83202 50.353C4.83202 46.2235 10.9657 40.9564 21.1962 37.3767C22.4378 36.9426 23.7372 36.5328 25.0856 36.1483C26.4997 40.7642 28.3544 45.5905 30.5926 50.4708C28.3252 55.4233 26.4441 60.3267 25.0163 64.9971C24.0798 64.7278 23.15 64.4355 22.2277 64.1204ZM27.691 26.7947C25.5676 15.9031 26.9777 7.68712 30.5268 5.62504C34.3067 3.42873 42.6653 6.56017 51.4755 14.4116C52.05 14.9247 52.6152 15.4483 53.1708 15.982C49.8879 19.5201 46.6443 23.5481 43.5454 27.9372C38.2313 28.4315 33.1446 29.2254 28.4678 30.289C28.1797 29.1311 27.9206 27.9661 27.691 26.7952V26.7947ZM76.4301 38.874C75.3255 36.9589 74.1799 35.068 72.9941 33.2025C76.5992 33.6601 80.0533 34.2674 83.297 35.0098C82.3233 38.1426 81.1095 41.4176 79.6808 44.7754C78.6365 42.7867 77.5527 40.8192 76.4301 38.874ZM56.5544 19.4443C58.7806 21.8652 61.0104 24.5679 63.2036 27.5004C58.7546 27.2895 54.2982 27.2886 49.8491 27.4977C52.0445 24.5922 54.2932 21.8931 56.5544 19.4443ZM36.5511 38.9072C35.4425 40.8368 34.3789 42.792 33.3613 44.7714C31.956 41.4255 30.7532 38.1355 29.7712 34.9584C32.9949 34.2346 36.4328 33.6428 40.0149 33.1936C38.8159 35.0705 37.661 36.9754 36.5511 38.9067V38.9072ZM40.1178 67.857C36.4169 67.4424 32.9274 66.8811 29.7045 66.1768C30.702 62.943 31.9312 59.583 33.367 56.1653C34.3887 58.1462 35.4567 60.1026 36.57 62.0331C37.7149 64.0177 38.9005 65.9615 40.1178 67.857ZM56.6877 81.6027C54.3996 79.1256 52.1177 76.3848 49.8892 73.4372C52.0528 73.5223 54.2584 73.5657 56.5001 73.5657C58.8031 73.5657 61.0797 73.5139 63.3206 73.4138C61.1203 76.4145 58.8989 79.1592 56.6877 81.6027ZM79.7263 55.9908C81.2366 59.4461 82.5096 62.7884 83.5203 65.9668C80.2444 66.7172 76.7073 67.3214 72.9804 67.7702C74.1746 65.87 75.3311 63.9462 76.4491 61.9999C77.5858 60.0215 78.6784 58.018 79.7263 55.9908ZM72.268 59.5794C70.5565 62.5635 68.7487 65.491 66.8475 68.3571C63.4038 68.6019 59.9525 68.7235 56.5001 68.7217C52.9837 68.7217 49.5635 68.6118 46.27 68.3974C44.3193 65.5379 42.477 62.6053 40.7472 59.606H40.7476C39.0259 56.6225 37.4177 53.5745 35.9265 50.4686C37.4139 47.3619 39.0172 44.3125 40.733 41.3268L40.7326 41.3272C42.4478 38.3407 44.2753 35.4207 46.2113 32.5734C49.5715 32.3183 53.0172 32.1854 56.4996 32.1854H56.5001C59.9984 32.1854 63.4486 32.3196 66.8078 32.5765C68.7243 35.4195 70.5402 38.3295 72.2521 41.3011C73.9736 44.2802 75.5982 47.3148 77.1231 50.3999C75.6138 53.5166 73.9944 56.5784 72.268 59.5794ZM82.2253 5.48062C86.0087 7.67073 87.4803 16.5025 85.103 28.0842C84.9512 28.8231 84.7808 29.5758 84.5955 30.339C79.9072 29.2528 74.8169 28.4453 69.4874 27.9434C66.3828 23.506 63.1656 19.4718 59.9361 15.9793C60.7825 15.1605 61.6491 14.3628 62.5349 13.5872C70.8768 6.30147 78.6732 3.42474 82.2253 5.48062ZM56.5001 40.2264C62.0724 40.2264 66.5898 44.7603 66.5898 50.353C66.5898 55.9456 62.0724 60.4796 56.5001 60.4796C50.9278 60.4796 46.4104 55.9456 46.4104 50.353C46.4104 44.7603 50.9278 40.2264 56.5001 40.2264Z" fill="#00D8FF" />
    </g>
    <g id="css">
    <path d="M22.1325 101.154L13.71 7.4375H106.29L97.8562 101.139L59.9437 111.562L22.1325 101.154Z" fill="#1572B6" />
    <path d="M60 103.597L90.6375 95.1739L97.845 15.1018H60V103.597Z" fill="#33A9DC" />
    <path d="M60 49.054H75.3375L76.395 37.2842H60V25.7896H89.0625L88.785 28.8724L85.9387 60.5487H60V49.054Z" fill="white" />
    <path d="M60.0713 78.9045L60.0188 78.9193L47.1113 75.4609L46.2863 66.2942H34.65L36.2738 84.3413L60.015 90.8788L60.0713 90.864V78.9045Z" fill="#EBEBEB" />
    <path d="M74.3513 60.0615L72.9563 75.4534L60.03 78.9119V90.8714L83.79 84.3412L83.9663 82.4001L85.98 60.0615H74.3513Z" fill="white" />
    <path d="M60.0413 25.7896V37.2842H32.0438L31.8113 34.6997L31.2825 28.8724L31.005 25.7896H60.0413ZM60 49.054V60.5487H47.2538L47.0213 57.9642L46.4963 52.1369L46.2188 49.054H60Z" fill="#EBEBEB" />
    </g>
    <g id="html">
        <path d="M22.1325 102.004L13.7063 7.5H106.294L97.8563 101.989L59.9438 112.5L22.1325 102.004Z" fill="#E44F26" />
        <path d="M60 104.468L90.6375 95.9738L97.845 15.2288H60V104.468Z" fill="#F1662A" />
        <path d="M60 50.2763H44.6625L43.605 38.4075H60V26.8163H30.9375L31.215 29.9288L34.0613 61.8675H60V50.2763ZM60 80.3775L59.9475 80.3925L47.04 76.9088L46.215 67.665H34.5787L36.2025 85.86L59.9475 92.4525L60 92.4375V80.3775Z" fill="#EBEBEB" />
        <path d="M59.9587 50.2763V61.8675H74.2312L72.8887 76.9013L59.9587 80.3888V92.4488L83.7225 85.86L83.895 83.9025L86.6175 53.3888L86.9025 50.2763H59.9587ZM59.9587 26.8163V38.4075H87.9562L88.1887 35.805L88.7175 29.9288L88.995 26.8163H59.9587Z" fill="white" />
    </g>
    <g id="npm">
        <path d="M0 105V0H105V105H0Z" fill="#C12127" />
        <path d="M19.6875 19.6875H85.3125V85.3125H72.1875V32.8125H52.5V85.3125H19.6875V19.6875Z" fill="white" />

    <defs>
        <clipPath id="clip0_82142_533">
            <rect width="105" height="105" fill="white" />
        </clipPath>
    </defs>
    </g>
<g id="git">
    <path d="M103.02 47.8219L57.1758 1.98038C54.5372 -0.6598 50.2552 -0.6598 47.6134 1.98038L38.0937 11.5001L50.1699 23.5763C52.9762 22.6281 56.1943 23.2642 58.4313 25.5012C60.6789 27.7525 61.3106 30.9981 60.3393 33.8134L71.9775 45.452C74.7932 44.482 78.0421 45.1095 80.291 47.3621C83.434 50.5039 83.434 55.596 80.291 58.7399C77.1471 61.8841 72.055 61.8841 68.9095 58.7399C66.5454 56.3733 65.9613 52.9013 67.1582 49.9888L56.3046 39.1352L56.3034 67.6973C57.0902 68.0863 57.8088 68.6002 58.4313 69.2189C61.5743 72.3607 61.5743 77.4532 58.4313 80.5995C55.2874 83.7422 50.1929 83.7422 47.0535 80.5995C43.9105 77.4532 43.9105 72.3611 47.0535 69.2193C47.8067 68.4658 48.7019 67.869 49.6871 67.4635V38.6352C48.7004 38.2324 47.8048 37.6353 47.0535 36.8793C44.6722 34.5013 44.0996 31.0071 45.3198 28.0831L33.4154 16.1775L1.98105 47.6099C-0.660352 50.2525 -0.660352 54.5349 1.98105 57.1755L47.8259 103.018C50.4652 105.658 54.7464 105.658 57.3891 103.018L103.019 57.3884C105.66 54.747 105.66 50.4621 103.019 47.8219" fill="#DE4C36" />
</g>
<g id="ts">
    <path d="M80.3906 0H24.6094C11.018 0 0 11.018 0 24.6094V80.3906C0 93.982 11.018 105 24.6094 105H80.3906C93.982 105 105 93.982 105 80.3906V24.6094C105 11.018 93.982 0 80.3906 0Z" fill="#007ACC"/>
    <path d="M23.2194 52.8482L23.1861 57.1483H36.8525V95.9815H46.5195V57.1483H60.1859V52.9315C60.1859 50.5981 60.1363 48.6482 60.0694 48.5982C60.0194 48.5317 51.7027 48.4981 41.6194 48.5149L23.2694 48.565L23.2194 52.8482ZM84.7247 48.4427C87.3912 49.1096 89.4247 50.2929 91.2913 52.226C92.2581 53.2596 93.6912 55.143 93.8081 55.593C93.8413 55.7263 89.2746 58.793 86.5081 60.5095C86.408 60.5764 86.0077 60.1429 85.5578 59.4763C84.208 57.5096 82.7913 56.6594 80.6244 56.5097C77.4412 56.2927 75.3912 57.9596 75.4081 60.7429C75.4081 61.5595 75.5245 62.0427 75.858 62.7096C76.5577 64.1595 77.8579 65.0262 81.9414 66.7927C89.458 70.0264 92.6744 72.1596 94.6747 75.1927C96.908 78.5761 97.408 83.9762 95.8913 87.9929C94.2248 92.3594 90.0912 95.3261 84.2744 96.3096C82.4746 96.6262 78.2078 96.5762 76.2747 96.2263C72.0579 95.4762 68.058 93.393 65.5914 90.6597C64.6246 89.5929 62.7412 86.8096 62.8581 86.6094C62.9077 86.543 63.3413 86.2764 63.8244 85.9929C64.2912 85.7263 66.0581 84.7096 67.7246 83.7428L70.7413 81.9927L71.3746 82.9262C72.2581 84.276 74.1911 86.1262 75.358 86.7427C78.7078 88.5097 83.3081 88.2595 85.5746 86.2263C86.5413 85.3428 86.9412 84.4262 86.9412 83.0763C86.9412 81.8594 86.7911 81.3262 86.1578 80.4095C85.3412 79.243 83.6747 78.2595 78.9411 76.2095C73.5246 73.8761 71.1912 72.4262 69.058 70.1261C67.8247 68.793 66.6578 66.6594 66.1746 64.8761C65.7747 63.3929 65.6746 59.6761 65.9913 58.1762C67.1077 52.943 71.0579 49.293 76.7579 48.2094C78.6081 47.8595 82.9078 47.9928 84.7247 48.4427Z" fill="white"/>
</g>
    <g id="vite">
        <path d="M80.3906 0H24.6094C11.018 0 0 11.018 0 24.6094V80.3906C0 93.982 11.018 105 24.6094 105H80.3906C93.982 105 105 93.982 105 80.3906V24.6094C105 11.018 93.982 0 80.3906 0Z" fill="#27282b" />
        <path d="M93.1416 23.6258L54.6558 92.4447C53.8609 93.8659 51.8196 93.8741 51.0132 92.4603L11.7641 23.632C10.8856 22.0914 12.203 20.2252 13.9494 20.5373L52.4762 27.4239C52.7221 27.4677 52.9738 27.4671 53.2194 27.4222L90.9407 20.5468C92.681 20.2297 94.0045 22.0816 93.1416 23.6258Z" fill="url(#paint0_linear_19506_30)" />
        <path d="M70.8286 11.5049L42.3482 17.0851C42.1207 17.1297 41.9144 17.2486 41.7618 17.4233C41.6092 17.5979 41.519 17.8183 41.5053 18.0497L39.7532 47.6388C39.7436 47.801 39.772 47.9633 39.836 48.1126C39.9001 48.262 39.998 48.3943 40.1221 48.4992C40.2463 48.6041 40.3931 48.6786 40.5511 48.7169C40.709 48.7551 40.8737 48.7561 41.032 48.7196L48.9616 46.8899C49.7035 46.7188 50.3737 47.3722 50.2216 48.1183L47.8656 59.6543C47.7069 60.4308 48.4362 61.0944 49.1941 60.8643L54.0918 59.3763C54.851 59.1458 55.5807 59.8114 55.4199 60.5887L51.676 78.709C51.4418 79.8426 52.9495 80.4608 53.5783 79.4887L53.9983 78.8398L77.2058 32.525C77.5946 31.7498 76.9244 30.8655 76.0725 31.0295L67.9108 32.605C67.1438 32.7526 66.4912 32.0385 66.7074 31.2884L72.0349 12.8207C72.2515 12.0693 71.5965 11.3548 70.8286 11.5049Z" fill="url(#paint1_linear_19506_30)" />
        <linearGradient id="paint0_linear_19506_30" x1="10.806" y1="18.0776" x2="58.7044" y2="83.1276" gradientUnits="userSpaceOnUse">
            <stop stop-color="#41D1FF" />
            <stop offset="1" stop-color="#BD34FE" />
        </linearGradient>
        <linearGradient id="paint1_linear_19506_30" x1="50.2651" y1="13.0196" x2="58.9296" y2="72.4582" gradientUnits="userSpaceOnUse">
            <stop stop-color="#FFEA83" />
            <stop offset="0.083" stop-color="#FFDD35" />
            <stop offset="1" stop-color="#FFA800" />
        </linearGradient>
        <clipPath id="clip0_19506_30">
            <rect width="105" height="105" fill="white" />
        </clipPath>
    </g>
<g id="redux">
    <path d="M80.3906 0H24.6094C11.018 0 0 11.018 0 24.6094V80.3906C0 93.982 11.018 105 24.6094 105H80.3906C93.982 105 105 93.982 105 80.3906V24.6094C105 11.018 93.982 0 80.3906 0Z" fill="#764ABC" />
    <path d="M68.3234 67.9215C71.3508 67.6081 73.6472 64.9983 73.5427 61.8667C73.4385 58.7352 70.8287 56.23 67.6971 56.23H67.4883C64.2522 56.3341 61.747 59.0481 61.8512 62.2843C61.9557 63.8503 62.5821 65.2071 63.5213 66.1467C59.9722 73.1407 54.5442 78.2558 46.4018 82.5357C40.8692 85.4585 35.1278 86.5024 29.3865 85.7719C24.6889 85.1456 21.0357 83.0575 18.7388 79.613C15.3985 74.4979 15.0855 68.9653 17.9037 63.4327C19.8872 59.4657 23.0188 56.5429 25.0023 55.0815C24.5848 53.7247 23.9585 51.4279 23.6451 49.7577C8.5091 60.7187 10.0747 75.5418 14.6676 82.5357C18.1129 87.755 25.1065 90.9911 32.8314 90.9911C34.9191 90.9911 37.0068 90.7823 39.0945 90.2602C52.4565 87.6508 62.5821 79.7171 68.3234 67.9215Z" fill="white" />
    <path d="M86.6955 54.9773C78.7623 45.6865 67.0708 40.5718 53.7091 40.5718H52.039C51.0993 38.6925 49.1158 37.4399 46.9239 37.4399H46.7152C43.479 37.5445 40.9738 40.2585 41.078 43.4946C41.1826 46.6262 43.792 49.1314 46.9239 49.1314H47.1327C49.4292 49.0272 51.4127 47.5658 52.2478 45.5823H54.1267C62.0599 45.5823 69.576 47.8788 76.3612 52.3675C81.5805 55.8124 85.3388 60.3012 87.4264 65.7292C89.2012 70.1133 89.0966 74.3933 87.2177 78.047C84.2949 83.5796 79.3886 86.607 72.9163 86.607C68.741 86.607 64.7743 85.3543 62.6862 84.4147C61.5382 85.4585 59.4505 87.1287 57.9891 88.1725C62.4775 90.2602 67.0708 91.4087 71.455 91.4087C81.4763 91.4087 88.8878 85.8761 91.7064 80.3435C94.7338 74.2891 94.525 63.8502 86.6955 54.9773Z" fill="white" />
    <path d="M33.6664 69.6962C33.771 72.8278 36.3804 75.333 39.5124 75.333H39.7212C42.9569 75.2284 45.4625 72.5144 45.3579 69.2783C45.2538 66.1467 42.6439 63.6415 39.5124 63.6415H39.3032C39.0949 63.6415 38.7815 63.6415 38.5731 63.7461C34.2928 56.6475 32.5184 48.9226 33.1447 40.5718C33.5623 34.3087 35.65 28.8803 39.3036 24.3912C42.3306 20.5291 48.1765 18.6502 52.1432 18.5456C63.2084 18.3369 67.9059 32.1161 68.2188 37.6491C69.576 37.962 71.8725 38.6925 73.4385 39.2146C72.1859 22.3043 61.747 13.5352 51.7256 13.5352C42.3306 13.5352 33.6664 20.3204 30.2215 30.3417C25.4198 43.7034 28.5514 56.5429 34.3969 66.6688C33.8752 67.3993 33.5619 68.5478 33.6664 69.6962Z" fill="white" />
</g>
    <g id="styled">
        <path d="M80.3906 0H24.6094C11.018 0 0 11.018 0 24.6094V80.3906C0 93.982 11.018 105 24.6094 105H80.3906C93.982 105 105 93.982 105 80.3906V24.6094C105 11.018 93.982 0 80.3906 0Z" fill="url(#paint0_linear_19508_42)" />
        <path d="M4.71146 52.9426L25.344 61.3032V67.1557L0.919159 55.8391V52.4052L4.71146 52.9426ZM25.344 46.0753L4.74141 54.5549L0.919569 54.9732V51.5095L25.3436 40.2228L25.344 46.0753ZM98.9998 54.1369L77.7701 45.8661V40.1629L103.27 51.4496V54.9433L98.9998 54.1369ZM77.7701 61.4225L99.0597 52.9725L103.27 52.3454V55.8091L77.7701 67.1258V61.4225Z" fill="white" />
        <path fill-rule="evenodd" clip-rule="evenodd" d="M72.2191 25.0601C72.101 26.9329 71.2573 28.8885 71.4923 30.7092C72.966 33.3153 76.2095 33.7308 78.8854 33.9097C80.7393 34.2411 80.7159 33.0135 80.5916 31.6345L80.6142 25.0212C77.8157 25.0314 75.0163 24.9937 72.2191 25.0601ZM50.1523 30.2978C45.5963 31.0714 40.9779 33.2485 37.1876 35.8694C34.1369 38.2438 39.8065 40.5448 41.8634 40.9295C46.0019 40.9799 49.6724 38.1884 52.3909 35.2911C53.2785 34.0729 54.3871 32.2079 53.2719 30.7958C52.4204 30.0575 51.1822 30.2363 50.1523 30.2978ZM59.8471 36.9243C56.1012 37.638 52.5369 39.1818 49.3832 41.3314C47.0712 42.0574 45.1656 44.5959 48.0305 45.8678C51.039 48.2651 54.5258 47.6778 57.2964 46.0593C59.8336 44.5512 62.5743 42.6903 63.7481 39.8512C64.8568 36.741 61.9963 36.6257 59.8471 36.9243ZM70.4739 48.9759C69.7762 51.8897 66.8419 53.2145 65.2809 55.5233C64.0045 57.2074 64.5955 59.1913 66.0487 60.5169C66.7562 61.984 67.9965 62.8039 69.3267 61.5296C72.7523 59.2007 73.6997 54.6644 73.5574 50.7339C73.8105 49.1105 71.948 50.578 70.4739 48.9759ZM57.4379 54.4487C52.8888 55.2271 48.339 57.4436 44.5471 60.0604C41.6034 62.4315 47.1475 64.6455 49.2212 64.9966C53.4364 65.0028 57.1963 62.2863 59.8615 59.2011C60.7884 57.976 61.9119 55.5967 60.0764 54.6226C59.2557 54.2747 58.3029 54.3769 57.4379 54.4487Z" fill="#B956A6" />
        <path fill-rule="evenodd" clip-rule="evenodd" d="M37.1876 35.8694C33.689 37.2693 30.3142 38.9689 26.9813 40.749C26.362 43.052 26.8587 45.9039 26.6983 48.4292C26.686 58.8127 26.6917 69.1966 26.6901 79.5801H34.4092C35.9678 78.1126 37.9202 77.0384 39.6133 75.7058C46.1323 71.0304 52.6493 66.337 59.1597 61.6748C59.6388 61.8901 59.332 58.8566 58.2812 60.9636C55.7911 63.3068 52.4861 65.2341 48.9878 65.0459C47.0027 64.3929 43.8026 63.2851 43.7825 60.8524C45.1799 59.2073 41.2043 61.7137 40.1166 62.0726C36.5802 63.7707 33.1275 65.6668 29.5837 67.3333C30.4352 66.4186 32.0283 65.5659 33.1579 64.6587C41.2269 58.8664 49.2938 53.0517 57.3821 47.2639C58.9378 46.1717 60.4406 44.9802 62.0443 43.9593C62.1908 44.5249 62.4656 41.2551 61.2728 43.2682C58.8414 45.6783 55.5618 47.4723 52.103 47.4969C50.1576 46.9063 46.0142 45.4941 46.9366 42.9823C47.3866 42.1009 42.758 44.8612 44.803 43.3047C46.9797 41.7141 49.1736 40.1518 51.3671 38.5777C52.475 38.4944 52.2391 34.3793 50.7339 37.0338C48.2053 39.2556 44.883 41.2884 41.4004 40.8064C39.4439 40.2433 37.0966 39.1527 36.3854 37.1068C36.1499 36.6155 37.7028 35.8497 37.1876 35.8694ZM51.6821 38.4095C52.0336 38.2069 51.4881 38.9644 51.6821 38.4095Z" fill="#FCCC44" />
        <path fill-rule="evenodd" clip-rule="evenodd" d="M73.7867 33.1201C72.6945 38.3357 71.5005 43.7944 70.4739 48.9755C73.4237 52.6932 73.7096 46.627 74.2256 44.9117C75.0594 41.3265 76.0471 38.6195 76.1517 34.9076C76.3731 33.6406 74.8843 32.8736 73.7867 33.1201ZM77.1709 37.2098C77.3054 37.3103 77.0786 37.7442 77.1709 37.2098ZM73.7297 48.905C73.8716 49.2105 73.8716 48.599 73.7297 48.905Z" fill="#62777F" />
        <path fill-rule="evenodd" clip-rule="evenodd" d="M75.7214 33.7107C76.6418 38.8795 73.5931 45.159 72.596 50.0325C74.8601 48.3664 76.6094 40.8073 77.0565 37.8484C77.1717 37.51 77.3136 36.6585 77.3444 36.6278C77.4867 35.9096 78.8128 34.6927 78.8854 33.9097C79.6573 33.365 75.0914 33.2776 75.7214 33.7107ZM73.8441 48.905C73.7018 49.2105 73.7018 48.599 73.8441 48.905Z" fill="#4E5E67" />
        <path fill-rule="evenodd" clip-rule="evenodd" d="M37.2643 35.9555C35.9879 37.2336 36.467 36.9214 37.4169 35.8587L37.2643 35.9555ZM51.0702 36.5884C49.5916 38.8102 44.2596 40.6682 43.5881 40.8122C46.7955 40.2113 49.7852 38.2159 51.8889 35.8788C51.5546 36.0277 51.3561 36.3776 51.0702 36.5884ZM36.3874 37.3099C37.1844 39.2261 40.0821 40.4992 41.4902 40.7962C39.5678 40.1769 37.3049 39.0785 36.3874 37.3099ZM51.5673 38.4181C51.1649 38.8931 49.7319 39.6035 48.9763 40.3007C47.3558 41.4959 45.6795 42.6066 44.0774 43.8318C45.0975 43.7879 48.0867 41.555 46.5544 43.8207C47.8529 46.0556 50.6801 47.6097 53.258 47.4678C56.6623 46.9334 59.8016 45.0512 62.0583 42.4335C59.3188 45.1443 55.6972 47.6954 51.6895 47.3439C49.7499 46.896 44.4499 44.1582 47.9953 42.2391C49.2454 41.2109 51.4008 40.6723 51.6448 38.8652C51.5936 38.6396 52.014 38.4193 51.5673 38.4181ZM41.8634 40.9295C43.1534 41.0981 43.1534 40.7613 41.8634 40.9295ZM61.9623 44.0159C56.844 47.5818 51.7999 51.2872 46.7258 54.9171C40.9754 59.0326 35.2497 63.1632 29.5009 67.2755C31.6624 66.5466 33.828 65.1234 35.9752 64.1402C38.9324 62.5759 42.0504 61.3401 44.8174 59.4398C50.288 56.2193 56.0737 53.1509 60.2815 48.2237C61.1998 47.1466 62.1206 45.4129 62.1616 44.2468C62.0292 44.2842 62.1297 43.7805 61.9623 44.0159ZM44.5471 60.06C43.6263 61.1006 43.2522 61.8442 44.2079 60.521C44.1911 60.6744 44.9835 59.6995 44.5471 60.06ZM58.5564 60.5579C56.1307 63.1157 52.5431 64.9605 49.1769 65.0848C53.0685 65.1131 56.5794 62.8031 59.2159 60.078C59.0428 59.8689 58.6921 60.5653 58.5564 60.5579ZM59.2975 61.3618C51.1481 67.2943 42.7174 73.4479 34.5405 79.3591C35.8284 79.7631 38.6334 79.9526 39.9135 78.3033C42.637 76.424 45.6988 75.0422 48.4313 73.1374C52.388 70.5698 56.6245 67.7636 58.8718 63.4483C58.9788 62.8696 59.7741 61.8286 59.2975 61.3618ZM43.7883 61.7384C44.1664 63.3347 48.8939 65.1669 48.3812 64.8162C46.638 64.205 44.9088 63.2527 43.7883 61.7384Z" fill="#DC9624" />
        <defs>
            <linearGradient id="paint0_linear_19508_42" x1="0" y1="105" x2="105" y2="0" gradientUnits="userSpaceOnUse">
                <stop stop-color="#DB7093" />
                <stop offset="1" stop-color="#F3B661" />
            </linearGradient>
        </defs>
    </g>
    <g id="figma">
        <path d="M17.5 105C27.16 105 35 97.16 35 87.5V70H17.5C7.84 70 0 77.84 0 87.5C0 97.16 7.84 105 17.5 105Z" fill="#0ACF83" />
        <path d="M0 52.5C0 42.84 7.84 35 17.5 35H35V70H17.5C7.84 70 0 62.16 0 52.5Z" fill="#A259FF" />
        <path d="M0 17.5C0 7.84 7.84 0 17.5 0H35V35H17.5C7.84 35 0 27.16 0 17.5Z" fill="#F24E1E" />
        <path d="M35 0H52.5C62.16 0 70 7.84 70 17.5C70 27.16 62.16 35 52.5 35H35V0Z" fill="#FF7262" />
        <path d="M70 52.5C70 62.16 62.16 70 52.5 70C42.84 70 35 62.16 35 52.5C35 42.84 42.84 35 52.5 35C62.16 35 70 42.84 70 52.5Z" fill="#1ABCFE" />

    </g>


<!--    Mail-->
    <g id="mailMe" >
        <path  d="M 75.546 78.738 H 14.455 C 6.484 78.738 0 72.254 0 64.283 V 25.716 c 0 -7.97 6.485 -14.455 14.455 -14.455 h 61.091 c 7.97 0 14.454 6.485 14.454 14.455 v 38.567 C 90 72.254 83.516 78.738 75.546 78.738 z M 14.455 15.488 c -5.64 0 -10.228 4.588 -10.228 10.228 v 38.567 c 0 5.64 4.588 10.229 10.228 10.229 h 61.091 c 5.64 0 10.228 -4.589 10.228 -10.229 V 25.716 c 0 -5.64 -4.588 -10.228 -10.228 -10.228 H 14.455 z" style="stroke: none; stroke-width: 1; stroke-dasharray: none; stroke-linecap: butt; stroke-linejoin: miter; stroke-miterlimit: 10;  fill-rule: nonzero; opacity: 1;" transform=" matrix(1 0 0 1 0 0) " stroke-linecap="round" />
        <path  d="M 11.044 25.917 C 21.848 36.445 32.652 46.972 43.456 57.5 c 2.014 1.962 5.105 -1.122 3.088 -3.088 C 35.74 43.885 24.936 33.357 14.132 22.83 C 12.118 20.867 9.027 23.952 11.044 25.917 L 11.044 25.917 z" style="stroke: none; stroke-width: 1; stroke-dasharray: none; stroke-linecap: butt; stroke-linejoin: miter; stroke-miterlimit: 10;  fill-rule: nonzero; opacity: 1;" transform=" matrix(1 0 0 1 0 0) " stroke-linecap="round" />
        <path  d="M 46.544 57.5 c 10.804 -10.527 21.608 -21.055 32.412 -31.582 c 2.016 -1.965 -1.073 -5.051 -3.088 -3.088 C 65.064 33.357 54.26 43.885 43.456 54.412 C 41.44 56.377 44.529 59.463 46.544 57.5 L 46.544 57.5 z" style="stroke: none; stroke-width: 1; stroke-dasharray: none; stroke-linecap: butt; stroke-linejoin: miter; stroke-miterlimit: 10;  fill-rule: nonzero; opacity: 1;" transform=" matrix(1 0 0 1 0 0) " stroke-linecap="round" />
        <path  d="M 78.837 64.952 c -7.189 -6.818 -14.379 -13.635 -21.568 -20.453 c -2.039 -1.933 -5.132 1.149 -3.088 3.088 c 7.189 6.818 14.379 13.635 21.568 20.453 C 77.788 69.973 80.881 66.89 78.837 64.952 L 78.837 64.952 z" style="stroke: none; stroke-width: 1; stroke-dasharray: none; stroke-linecap: butt; stroke-linejoin: miter; stroke-miterlimit: 10;  fill-rule: nonzero; opacity: 1;" transform=" matrix(1 0 0 1 0 0) " stroke-linecap="round" />
        <path  d="M 14.446 68.039 c 7.189 -6.818 14.379 -13.635 21.568 -20.453 c 2.043 -1.938 -1.048 -5.022 -3.088 -3.088 c -7.189 6.818 -14.379 13.635 -21.568 20.453 C 9.315 66.889 12.406 69.974 14.446 68.039 L 14.446 68.039 z" style="stroke: none; stroke-width: 1; stroke-dasharray: none; stroke-linecap: butt; stroke-linejoin: miter; stroke-miterlimit: 10;  fill-rule: nonzero; opacity: 1;" transform=" matrix(1 0 0 1 0 0) " stroke-linecap="round" />
    </g>
<!--line-->
    <g id="line">
        <path opacity="0.3" d="M1 1.84112H1210" stroke="#42446E" stroke-width="2" stroke-linecap="square" />
    </g>
<!--    Logo-->
    <g id="logo">
        <path fill-rule="evenodd" clip-rule="evenodd" d="M5.20357 0C2.32857 0 0 2.41571 0 5.3983V33.505C0 36.4876 2.32857 38.9033 5.20357 38.9033H19.5821L17.6714 44.4424H14.2857C13.5753 44.4424 12.894 44.7352 12.3917 45.2563C11.8893 45.7774 11.6071 46.4842 11.6071 47.2212C11.6071 47.9582 11.8893 48.665 12.3917 49.1861C12.894 49.7072 13.5753 50 14.2857 50H35.7143C36.4247 50 37.106 49.7072 37.6083 49.1861C38.1106 48.665 38.3929 47.9582 38.3929 47.2212C38.3929 46.4842 38.1106 45.7774 37.6083 45.2563C37.106 44.7352 36.4247 44.4424 35.7143 44.4424H32.3286L30.4179 38.9033H44.7964C47.6714 38.9033 50 36.4876 50 33.505V5.3983C50 2.41571 47.6714 0 44.7964 0H5.20357ZM28.525 8.48092C29.1988 8.7135 29.756 9.21414 30.0741 9.87279C30.3922 10.5314 30.4452 11.2942 30.2214 11.9933L24.8643 28.6662C24.7531 29.0126 24.5773 29.3329 24.3468 29.6089C24.1163 29.8848 23.8357 30.1109 23.521 30.2743C23.2063 30.4378 22.8636 30.5353 22.5125 30.5613C22.1615 30.5873 21.8089 30.5414 21.475 30.4261C21.1411 30.3108 20.8323 30.1284 20.5663 29.8892C20.3003 29.6501 20.0824 29.359 19.9248 29.0325C19.7673 28.706 19.6733 28.3505 19.6482 27.9863C19.6231 27.6221 19.6674 27.2564 19.7786 26.91L25.1357 10.2371C25.247 9.89049 25.4232 9.57003 25.654 9.2941C25.8849 9.01817 26.1659 8.79217 26.4811 8.62905C26.7962 8.46592 27.1393 8.36888 27.4906 8.34346C27.8419 8.31804 28.1911 8.36475 28.525 8.48092ZM17.8143 16.9285C18.0943 16.6953 18.3263 16.4061 18.4964 16.078C18.6666 15.7499 18.7714 15.3897 18.8046 15.0188C18.8379 14.6479 18.7989 14.2738 18.69 13.9188C18.5811 13.5639 18.4045 13.2352 18.1708 12.9524C17.937 12.6697 17.6508 12.4385 17.3292 12.2728C17.0076 12.1071 16.6572 12.0101 16.2988 11.9877C15.9403 11.9653 15.5812 12.0179 15.2427 12.1423C14.9043 12.2668 14.5934 12.4605 14.3286 12.7121L8.07857 18.2697C7.7832 18.5327 7.54664 18.8594 7.38534 19.2269C7.22405 19.5944 7.1419 19.994 7.14462 20.3978C7.14734 20.8016 7.23486 21.1999 7.40109 21.565C7.56732 21.9302 7.80826 22.2533 8.10714 22.512L13.4643 27.1434C14.0121 27.5943 14.7081 27.8051 15.4037 27.7307C16.0993 27.6564 16.7393 27.3028 17.1869 26.7455C17.6346 26.1882 17.8544 25.4714 17.7995 24.7482C17.7445 24.025 17.4192 23.3528 16.8929 22.8751L13.9714 20.3483L17.8143 16.9285ZM36.5357 13.6124C36.2669 13.3685 35.9538 13.1827 35.6147 13.0662C35.2757 12.9496 34.9176 12.9045 34.5616 12.9337C34.2055 12.9628 33.8587 13.0655 33.5414 13.2357C33.2242 13.4059 32.943 13.6403 32.7143 13.9249C32.4857 14.2096 32.3142 14.5388 32.21 14.8932C32.1058 15.2476 32.071 15.6201 32.1076 15.9887C32.1442 16.3572 32.2515 16.7145 32.4231 17.0394C32.5948 17.3644 32.8274 17.6504 33.1071 17.8807L36.0286 20.4076L32.1857 23.8273C31.9057 24.0605 31.6737 24.3498 31.5036 24.6778C31.3334 25.0059 31.2286 25.3661 31.1954 25.737C31.1621 26.1079 31.2011 26.482 31.31 26.837C31.4189 27.192 31.5955 27.5206 31.8292 27.8034C32.063 28.0862 32.3492 28.3173 32.6708 28.483C32.9924 28.6488 33.3428 28.7457 33.7012 28.7681C34.0597 28.7906 34.4188 28.738 34.7573 28.6135C35.0957 28.4891 35.4066 28.2953 35.6714 28.0437L41.9214 22.4861C42.2168 22.2231 42.4534 21.8965 42.6147 21.529C42.776 21.1614 42.8581 20.7619 42.8554 20.3581C42.8527 19.9543 42.7651 19.5559 42.5989 19.1908C42.4327 18.8257 42.1917 18.5025 41.8929 18.2438L36.5357 13.6124Z"/>
    </g>
</svg>