<svg width="50" height="50" viewBox="0 0 50 50" fill="none" xmlns="http://www.w3.org/2000/svg">
<path fill-rule="evenodd" clip-rule="evenodd" d="M5.20357 0C2.32857 0 0 2.41571 0 5.3983V33.505C0 36.4876 2.32857 38.9033 5.20357 38.9033H19.5821L17.6714 44.4424H14.2857C13.5753 44.4424 12.894 44.7352 12.3917 45.2563C11.8893 45.7774 11.6071 46.4842 11.6071 47.2212C11.6071 47.9582 11.8893 48.665 12.3917 49.1861C12.894 49.7072 13.5753 50 14.2857 50H35.7143C36.4247 50 37.106 49.7072 37.6083 49.1861C38.1106 48.665 38.3929 47.9582 38.3929 47.2212C38.3929 46.4842 38.1106 45.7774 37.6083 45.2563C37.106 44.7352 36.4247 44.4424 35.7143 44.4424H32.3286L30.4179 38.9033H44.7964C47.6714 38.9033 50 36.4876 50 33.505V5.3983C50 2.41571 47.6714 0 44.7964 0H5.20357ZM28.525 8.48092C29.1988 8.7135 29.756 9.21414 30.0741 9.87279C30.3922 10.5314 30.4452 11.2942 30.2214 11.9933L24.8643 28.6662C24.7531 29.0126 24.5773 29.3329 24.3468 29.6089C24.1163 29.8848 23.8357 30.1109 23.521 30.2743C23.2063 30.4378 22.8636 30.5353 22.5125 30.5613C22.1615 30.5873 21.8089 30.5414 21.475 30.4261C21.1411 30.3108 20.8323 30.1284 20.5663 29.8892C20.3003 29.6501 20.0824 29.359 19.9248 29.0325C19.7673 28.706 19.6733 28.3505 19.6482 27.9863C19.6231 27.6221 19.6674 27.2564 19.7786 26.91L25.1357 10.2371C25.247 9.89049 25.4232 9.57003 25.654 9.2941C25.8849 9.01817 26.1659 8.79217 26.4811 8.62905C26.7962 8.46592 27.1393 8.36888 27.4906 8.34346C27.8419 8.31804 28.1911 8.36475 28.525 8.48092ZM17.8143 16.9285C18.0943 16.6953 18.3263 16.4061 18.4964 16.078C18.6666 15.7499 18.7714 15.3897 18.8046 15.0188C18.8379 14.6479 18.7989 14.2738 18.69 13.9188C18.5811 13.5639 18.4045 13.2352 18.1708 12.9524C17.937 12.6697 17.6508 12.4385 17.3292 12.2728C17.0076 12.1071 16.6572 12.0101 16.2988 11.9877C15.9403 11.9653 15.5812 12.0179 15.2427 12.1423C14.9043 12.2668 14.5934 12.4605 14.3286 12.7121L8.07857 18.2697C7.7832 18.5327 7.54664 18.8594 7.38534 19.2269C7.22405 19.5944 7.1419 19.994 7.14462 20.3978C7.14734 20.8016 7.23486 21.1999 7.40109 21.565C7.56732 21.9302 7.80826 22.2533 8.10714 22.512L13.4643 27.1434C14.0121 27.5943 14.7081 27.8051 15.4037 27.7307C16.0993 27.6564 16.7393 27.3028 17.1869 26.7455C17.6346 26.1882 17.8544 25.4714 17.7995 24.7482C17.7445 24.025 17.4192 23.3528 16.8929 22.8751L13.9714 20.3483L17.8143 16.9285ZM36.5357 13.6124C36.2669 13.3685 35.9538 13.1827 35.6147 13.0662C35.2757 12.9496 34.9176 12.9045 34.5616 12.9337C34.2055 12.9628 33.8587 13.0655 33.5414 13.2357C33.2242 13.4059 32.943 13.6403 32.7143 13.9249C32.4857 14.2096 32.3142 14.5388 32.21 14.8932C32.1058 15.2476 32.071 15.6201 32.1076 15.9887C32.1442 16.3572 32.2515 16.7145 32.4231 17.0394C32.5948 17.3644 32.8274 17.6504 33.1071 17.8807L36.0286 20.4076L32.1857 23.8273C31.9057 24.0605 31.6737 24.3498 31.5036 24.6778C31.3334 25.0059 31.2286 25.3661 31.1954 25.737C31.1621 26.1079 31.2011 26.482 31.31 26.837C31.4189 27.192 31.5955 27.5206 31.8292 27.8034C32.063 28.0862 32.3492 28.3173 32.6708 28.483C32.9924 28.6488 33.3428 28.7457 33.7012 28.7681C34.0597 28.7906 34.4188 28.738 34.7573 28.6135C35.0957 28.4891 35.4066 28.2953 35.6714 28.0437L41.9214 22.4861C42.2168 22.2231 42.4534 21.8965 42.6147 21.529C42.776 21.1614 42.8581 20.7619 42.8554 20.3581C42.8527 19.9543 42.7651 19.5559 42.5989 19.1908C42.4327 18.8257 42.1917 18.5025 41.8929 18.2438L36.5357 13.6124Z" fill="#A7A7A7"/>
</svg>
